<svg xmlns="http://www.w3.org/2000/svg" width="15" height="15" viewBox="0 0 15 15">
  <path id="cart_1_" data-name="cart (1)" d="M13,14a1.5,1.5,0,1,0,1.5,1.5A1.495,1.495,0,0,0,13,14M1,2V3.5H2.5L5.2,9.192,4.18,11.03a1.528,1.528,0,0,0-.18.72,1.5,1.5,0,0,0,1.5,1.5h9v-1.5H5.815a.188.188,0,0,1-.187-.187.16.16,0,0,1,.022-.09l.675-1.222h5.588a1.508,1.508,0,0,0,1.312-.773L15.91,4.625A.949.949,0,0,0,16,4.25a.75.75,0,0,0-.75-.75H4.157L3.452,2M5.5,14A1.5,1.5,0,1,0,7,15.5,1.495,1.495,0,0,0,5.5,14Z" transform="translate(-1 -2)"/>
</svg>
