<svg xmlns="http://www.w3.org/2000/svg" width="16" height="12.443" viewBox="0 0 16 12.443">
  <path id="comments-regular" d="M14.769,41.838a3.824,3.824,0,0,0,1.222-2.727c0-2.222-2.125-4.058-4.894-4.386A6,6,0,0,0,5.771,32C2.579,32-.007,33.989-.007,36.444a3.834,3.834,0,0,0,1.222,2.727A7.272,7.272,0,0,1,.168,40.7a.643.643,0,0,0,.467,1.083A6.384,6.384,0,0,0,4.112,40.7a7.916,7.916,0,0,0,.789.136,5.985,5.985,0,0,0,5.313,2.716,7.352,7.352,0,0,0,1.661-.189,6.4,6.4,0,0,0,3.477,1.078.643.643,0,0,0,.467-1.083A7.078,7.078,0,0,1,14.769,41.838ZM3.86,39.274l-.475.308a5.652,5.652,0,0,1-1.2.594c.075-.131.15-.269.222-.411L2.84,38.9l-.689-.68a2.546,2.546,0,0,1-.825-1.778c0-1.686,2.036-3.111,4.444-3.111s4.444,1.425,4.444,3.111-2.036,3.111-4.444,3.111A6.052,6.052,0,0,1,4.41,39.4l-.55-.125Zm9.974,1.614-.686.678.431.864c.072.142.147.281.222.411a5.651,5.651,0,0,1-1.2-.594l-.475-.308-.553.128a6.052,6.052,0,0,1-1.361.156,5.168,5.168,0,0,1-3.647-1.38c2.814-.3,4.98-2.15,4.98-4.4,0-.094-.011-.186-.019-.278,1.789.4,3.13,1.578,3.13,2.944A2.546,2.546,0,0,1,13.833,40.888Z" transform="translate(0.007 -32)"/>
</svg>
